<?xml version="1.0" encoding="UTF-8" standalone="no"?>
<svg
   xmlns:dc="http://purl.org/dc/elements/1.1/"
   xmlns:cc="http://creativecommons.org/ns#"
   xmlns:rdf="http://www.w3.org/1999/02/22-rdf-syntax-ns#"
   xmlns:svg="http://www.w3.org/2000/svg"
   xmlns="http://www.w3.org/2000/svg"
   xmlns:sodipodi="http://sodipodi.sourceforge.net/DTD/sodipodi-0.dtd"
   xmlns:inkscape="http://www.inkscape.org/namespaces/inkscape"
   version="1.1"
   id="svg2"
   xml:space="preserve"
   width="486.66666"
   height="244.01334"
   viewBox="0 0 486.66666 244.01334"
   sodipodi:docname="M-Pesa-01.eps"><metadata
     id="metadata8"><rdf:RDF><cc:Work
         rdf:about=""><dc:format>image/svg+xml</dc:format><dc:type
           rdf:resource="http://purl.org/dc/dcmitype/StillImage" /></cc:Work></rdf:RDF></metadata><defs
     id="defs6" /><sodipodi:namedview
     pagecolor="#ffffff"
     bordercolor="#666666"
     borderopacity="1"
     objecttolerance="10"
     gridtolerance="10"
     guidetolerance="10"
     inkscape:pageopacity="0"
     inkscape:pageshadow="2"
     inkscape:window-width="640"
     inkscape:window-height="480"
     id="namedview4" /><g
     id="g10"
     inkscape:groupmode="layer"
     inkscape:label="ink_ext_XXXXXX"
     transform="matrix(1.3333333,0,0,-1.3333333,0,244.01333)"><g
       id="g12"
       transform="scale(0.1)"><path
         d="m 1480.58,859.594 c 0,-90.582 -73.45,-164.035 -164.04,-164.035 h -276.33 c -90.597,0 -164.038,73.453 -164.038,164.035 v 462.056 c 0,90.59 73.441,164.03 164.038,164.03 h 276.33 c 90.59,0 164.04,-73.44 164.04,-164.03 z m 67.53,914.786 c 0,30.77 -24.95,55.71 -55.72,55.71 v 0 c -30.76,0 -55.71,-24.94 -55.71,-55.71 v -103.89 c -4.97,0.59 -10.02,0.9 -15.15,0.9 H 935.227 c -69.911,0 -126.582,-56.67 -126.582,-126.58 V 126.582 C 808.645,56.6719 865.316,0 935.227,0 h 486.303 c 69.91,0 126.58,56.6719 126.58,126.582 V 1544.81 c 0,10.06 -1.18,19.83 -3.4,29.21 2.2,5.99 3.4,12.45 3.4,19.19 v 181.17"
         style="fill:#cce76e;fill-opacity:1;fill-rule:nonzero;stroke:none"
         id="path14" /><path
         d="m 1038.25,1485.68 h 280.25 c 89.15,0 162.08,-72.93 162.08,-162.07 V 857.641 c 0,-89.141 -72.93,-162.082 -162.08,-162.082 h -280.25 c -89.141,0 -162.074,72.941 -162.074,162.082 v 465.969 c 0,89.14 72.933,162.07 162.074,162.07"
         style="fill:#ffffff;fill-opacity:1;fill-rule:evenodd;stroke:none"
         id="path16" /><path
         d="m 3350.33,1319.83 c 5.49,44.15 19.84,61.93 68.37,66.69 49.22,-1.27 66.73,-29.67 70.07,-73.45 v -119.86 h -138.44 z m -166.3,-633.1 h 166.3 v 413.62 h 138.44 V 686.73 H 3650 v 590.89 c -3.23,120.09 -95.54,195.35 -226.23,195.85 -149.11,1.31 -234.13,-69.41 -239.74,-189.09 V 686.73"
         style="fill:#7ecb29;fill-opacity:1;fill-rule:evenodd;stroke:none"
         id="path18" /><path
         d="m 1005.32,1170.41 c 27.73,-64.86 65.46,-94.67 111.2,-96.49 -71.31,-53.28 -148.461,-85.647 -228.883,-106.322 -50.504,3.234 -98.805,16.09 -145.688,28.922 118.461,23.38 206.801,80.72 263.371,173.89"
         style="fill:#7e1d1e;fill-opacity:1;fill-rule:evenodd;stroke:none"
         id="path20" /><path
         d="m 1315.96,1337.55 334.27,-168.83 C 1480,944.727 1192.91,938.832 887.141,967.816 1091.56,1018.19 1233.1,1143.11 1315.96,1337.55"
         style="fill:#ea1f28;fill-opacity:1;fill-rule:evenodd;stroke:none"
         id="path22" /><path
         d="m 689.418,1402.1 c -54.289,98.34 -153.016,100.78 -280.855,40.41 -76.543,68.93 -149.618,39.34 -246.516,-2.53 l -1.688,49.8 H 0 V 706.422 h 164.141 v 703.108 c 6.55,0.45 12.968,0.7 19.195,0.68 49.109,-0.14 88.852,-40 88.852,-89.11 V 706.422 h 165.453 v 703.108 c 3.261,0.22 6.515,0.39 9.746,0.49 25.789,0.83 50.804,-8.84 69.336,-26.79 18.531,-17.95 28.965,-42.66 28.965,-68.46 0,-84.03 0,-257.29 0,-608.348 h 161.707 v 620.338 c 0,22.59 -4.52,44.59 -13.309,65.4 -1.625,3.86 -3.223,7.32 -4.668,9.94"
         style="fill:#7ecb29;fill-opacity:1;fill-rule:nonzero;stroke:none"
         id="path24" /><path
         d="m 1827.09,1120.84 v 258.3 c 76.07,10.9 134.46,-10.24 138.44,-130 -2.52,-106.92 -59.35,-133.98 -138.44,-128.3 z m 280.71,241.43 c -26.91,57.21 -84.52,93.75 -147.74,93.75 H 1661.6 V 706.422 h 160.61 v 338.218 h 108.18 c 99.95,0 184.5,74.27 197.06,173.42 0.76,6 1.37,12.15 1.81,18.48 1.87,48.61 -5.2,91.18 -21.46,125.73"
         style="fill:#7ecb29;fill-opacity:1;fill-rule:nonzero;stroke:none"
         id="path26" /><path
         d="m 2484.87,758.84 c -0.96,0 -5.03,0.359 -6.05,0.5 -47.52,6.269 -77.17,34.461 -87.12,86.816 -1.34,7.043 -1.99,14.239 -1.96,21.407 l 0.91,238.617 h 167.75 l 31.43,-0.34 -0.01,0.34 h 4.72 v 102.43 h -203.89 v 100.97 c 0,30.3 18.68,57.51 46.95,68.41 1.09,0.42 2.21,0.83 3.36,1.22 7.76,2.65 15.82,3.95 24.03,3.92 l 144.06,-0.65 1.47,83.73 -195.09,-0.89 c -119.97,-4.45 -185.34,-53 -188.26,-151.98 V 877.047 c 0,-32.434 6.94,-64.766 20.42,-94.266 5.84,-12.793 11.88,-25.121 16.56,-32.519 30.66,-48.571 74.08,-66.512 124.28,-68.203 l 18.87,-0.911 h 224.3 v 77.692 h -146.73"
         style="fill:#7ecb29;fill-opacity:1;fill-rule:nonzero;stroke:none"
         id="path28" /><path
         d="m 3003.15,685.488 c -28.74,-15.429 -70.99,-25.168 -118.09,-25.168 -57.05,0 -106.99,14.282 -134.43,35.66 -24.66,17.321 -44.26,42.11 -58.72,73.93 -11.46,25.192 -19.68,54.801 -24.65,88.57 h 152.99 c 1.58,-9.48 3.62,-18.308 6.2,-26.386 3.35,-10.563 7.64,-19.864 12.98,-27.684 10.54,-15.469 25.21,-25.219 45.08,-27.73 8.62,-1.078 17.22,-0.45 25.6,1.808 17.04,4.621 30.85,12.184 41.13,22.211 24.09,23.512 28.9,60.606 10.82,105.16 -8.42,20.782 -21.89,39.289 -39.15,53.614 -108.38,89.947 -227.94,176.697 -240.75,293.957 -7.57,99.42 23.58,151.53 74.17,179.89 67.86,38.04 148.87,44.79 222.12,18.6 54.05,-19.33 91.08,-60.44 108,-127.28 3.31,-13.05 5.84,-27.09 7.6,-42.14 h -151.36 c -7.31,52.38 -40.05,80.21 -76.88,76.11 -14.93,-1.66 -28.53,-9.4 -37.59,-21.39 -9.07,-12 -12.77,-27.18 -10.3,-42.01 13,-78.01 146.42,-177.2 210.28,-228.74 5.92,-4.77 29.66,-25.07 35.77,-31.95 82.15,-92.399 66.62,-283.79 -60.82,-349.032"
         style="fill:#7ecb29;fill-opacity:1;fill-rule:evenodd;stroke:none"
         id="path30" /></g></g></svg>
